<svg width="20" height="21" viewBox="0 0 20 21" fill="none" xmlns="http://www.w3.org/2000/svg">
<path fill-rule="evenodd" clip-rule="evenodd" d="M10 20.562C15.5228 20.562 20 16.0849 20 10.562C20 5.03916 15.5228 0.562012 10 0.562012C4.47715 0.562012 0 5.03916 0 10.562C0 16.0849 4.47715 20.562 10 20.562ZM14.6966 8.5275C14.8309 8.39325 14.8309 8.1756 14.6966 8.04136L14.089 7.43369C13.9547 7.29945 13.7371 7.29945 13.6028 7.43369L9.27699 11.7595L7.27652 9.75906C7.14228 9.62481 6.92463 9.62481 6.79038 9.75906L6.18271 10.3667C6.04847 10.501 6.04847 10.7186 6.18271 10.8529L9.03392 13.7041C9.16816 13.8383 9.38581 13.8383 9.52006 13.7041L14.6966 8.5275Z" fill="url(#paint0_radial_19184_2235)"/>
<defs>
<radialGradient id="paint0_radial_19184_2235" cx="0" cy="0" r="1" gradientUnits="userSpaceOnUse" gradientTransform="translate(13.7949 21.3053) rotate(-93.2446) scale(21.9722 11.9179)">
<stop offset="0.17453" stop-color="#0071D9"/>
<stop offset="1" stop-color="#013797"/>
</radialGradient>
</defs>
</svg>
