<svg width="237" height="720" viewBox="0 0 237 720" fill="none" xmlns="http://www.w3.org/2000/svg">
<g clip-path="url(#clip0_2190_7216)">
<path fill-rule="evenodd" clip-rule="evenodd" d="M68.7984 21.7364C73.9252 13.8535 78.3071 3.96479 87.4957 2.0749C96.6392 0.194288 104.649 7.28058 112.133 12.8234C118.955 17.875 125.216 23.6485 127.637 31.8016C130.263 40.6471 131.181 50.9725 125.664 58.3997C120.324 65.5889 110.279 66.2946 101.39 67.1383C93.8312 67.8557 86.8147 65.9553 79.9517 62.7382C71.546 58.7981 60.7547 55.9222 58.313 46.9463C55.8357 37.8391 63.6394 29.669 68.7984 21.7364Z" fill="url(#paint0_radial_2190_7216)" style=""/>
<path fill-rule="evenodd" clip-rule="evenodd" d="M74.7201 40.0693C75.0371 37.2648 77.4652 35.448 79.5929 33.7294C81.4896 32.1974 83.5898 31.1183 85.9677 30.9845C88.6628 30.8329 91.6404 30.9102 93.5192 32.9459C95.4404 35.0275 95.5321 38.2203 95.3316 41.1302C95.1357 43.9744 94.4011 46.8245 92.4284 48.7801C90.4218 50.7692 87.6496 51.6541 84.914 51.4571C82.2301 51.2638 79.8533 49.8018 78.009 47.7415C76.1125 45.6228 74.3915 42.9757 74.7201 40.0693Z" fill="#7AA1C3" fill-opacity="0.59" style="fill:#7AA1C3;fill:color(display-p3 0.4791 0.6313 0.7665);fill-opacity:0.59;"/>
<ellipse cx="155.816" cy="628.27" rx="80.8162" ry="81.2702" fill="url(#paint1_radial_2190_7216)" style=""/>
<path fill-rule="evenodd" clip-rule="evenodd" d="M128.674 582.172C127.451 581.046 125.494 582.097 125.757 583.738L127.045 591.791C127.33 593.569 125.535 594.958 123.885 594.236C122.917 593.813 121.815 594.443 121.689 595.492L121.311 598.645C121.106 600.352 119.254 601.324 117.733 600.524L117.654 600.482C116.353 599.797 114.838 600.922 115.118 602.365L115.943 606.628C116.22 608.06 115.193 609.417 113.738 609.538L112.881 609.61C111.307 609.741 110.697 611.723 111.924 612.717L114.261 614.609C114.947 615.164 115.282 616.047 115.137 616.918L114.478 620.872C114.339 621.703 113.784 622.405 113.007 622.731L110.777 623.666C109.105 624.367 109.468 626.834 111.271 627.024L114.549 627.369C115.797 627.501 116.745 628.553 116.745 629.809V632.044C116.745 632.641 116.48 633.206 116.021 633.588L115.746 633.817C114.737 634.659 115.573 636.284 116.844 635.953C117.713 635.726 118.622 636.128 119.04 636.922L121.415 641.433C121.81 642.185 121.789 643.087 121.359 643.819L120.112 645.938C119.651 646.722 120.363 647.674 121.245 647.454C122.831 647.057 124.028 648.882 123.034 650.179L122.316 651.115C121.378 652.338 122.761 653.979 124.125 653.263L129.972 650.193C130.685 649.819 131.537 649.818 132.25 650.192L137.623 653.006C138.357 653.391 138.848 654.121 138.926 654.946L139.027 656.003C139.176 657.57 141.156 658.161 142.139 656.932L143.872 654.766C144.337 654.184 145.042 653.845 145.787 653.845H149.893C150.755 653.845 151.553 654.297 151.997 655.036L152.455 655.801C153.312 657.229 155.49 656.769 155.696 655.117L155.838 653.981C155.949 653.096 156.532 652.34 157.361 652.008L162.191 650.076C162.941 649.776 163.79 649.865 164.462 650.313L168.883 653.26C170.461 654.312 172.353 652.457 171.332 650.859L169.479 647.96C168.908 647.066 168.976 645.907 169.648 645.086L170.877 643.584C171.545 642.766 172.662 642.469 173.648 642.845L174.791 643.28C176.256 643.838 177.661 642.338 177.007 640.913L175.713 638.088C175.403 637.412 175.416 636.633 175.749 635.969L177.411 632.643C177.887 631.693 178.974 631.218 179.994 631.516C181.483 631.95 182.57 630.114 181.473 629.017L179.834 627.378C179.374 626.918 179.116 626.294 179.116 625.643V615.443C179.116 614.812 179.359 614.206 179.794 613.749L182.891 610.505C183.989 609.355 183.111 607.455 181.524 607.546L176.365 607.841C175.165 607.909 174.091 607.098 173.831 605.924L173.702 605.347C173.564 604.725 173.674 604.073 174.008 603.53L175.183 601.62C176.115 600.106 174.46 598.327 172.883 599.147L171.819 599.7C171.122 600.063 170.293 600.069 169.59 599.718L168.003 598.924C167.301 598.573 166.809 597.908 166.68 597.134L165.426 589.605C165.191 588.199 163.466 587.647 162.459 588.654L160.997 590.115C159.561 591.552 157.1 590.719 156.832 588.705L156.587 586.869C156.39 585.395 154.563 584.82 153.559 585.916L150.556 589.192C149.536 590.305 147.762 590.241 146.825 589.057L143.671 585.073C142.892 584.089 141.36 584.219 140.759 585.322L139.366 587.877C138.601 589.278 136.724 589.587 135.551 588.506L128.674 582.172ZM125.065 583.849C124.697 581.551 127.437 580.08 129.149 581.657L136.025 587.991C136.864 588.763 138.205 588.542 138.75 587.541L140.144 584.986C140.986 583.443 143.129 583.26 144.22 584.638L147.374 588.622C148.044 589.467 149.311 589.513 150.04 588.718L153.042 585.443C154.448 583.909 157.006 584.713 157.281 586.776L157.526 588.613C157.718 590.051 159.476 590.646 160.502 589.62L161.963 588.159C163.374 586.748 165.789 587.522 166.117 589.49L167.372 597.018C167.464 597.571 167.815 598.047 168.316 598.297L169.904 599.091C170.406 599.342 170.998 599.337 171.496 599.078L172.56 598.525C174.768 597.377 177.084 599.867 175.78 601.987L174.605 603.897C174.366 604.285 174.288 604.751 174.387 605.195L174.515 605.772C174.701 606.61 175.468 607.19 176.325 607.141L181.484 606.846C183.706 606.719 184.935 609.379 183.398 610.989L180.301 614.233C179.99 614.559 179.816 614.992 179.816 615.443V625.643C179.816 626.108 180.001 626.554 180.33 626.882L181.969 628.522C183.578 630.131 181.983 632.826 179.798 632.188C179.103 631.986 178.362 632.309 178.038 632.957L176.375 636.282C176.138 636.757 176.129 637.313 176.35 637.796L177.645 640.621C178.559 642.616 176.593 644.716 174.542 643.935L173.399 643.5C172.694 643.231 171.897 643.444 171.419 644.027L170.19 645.53C169.71 646.116 169.662 646.944 170.07 647.582L171.922 650.482C173.351 652.719 170.703 655.316 168.495 653.844L164.073 650.896C163.593 650.576 162.987 650.513 162.451 650.727L157.621 652.659C157.029 652.896 156.613 653.436 156.534 654.068L156.392 655.204C156.102 657.517 153.054 658.16 151.854 656.161L151.396 655.397C151.079 654.869 150.509 654.546 149.893 654.546H145.787C145.255 654.546 144.751 654.788 144.419 655.204L142.686 657.37C141.31 659.09 138.538 658.264 138.329 656.07L138.229 655.013C138.172 654.423 137.822 653.902 137.297 653.627L131.925 650.813C131.415 650.546 130.807 650.546 130.298 650.814L124.451 653.883C122.422 654.949 120.365 652.508 121.76 650.689L122.478 649.753C123.069 648.982 122.357 647.898 121.415 648.133C119.93 648.505 118.732 646.903 119.508 645.583L120.755 643.464C121.062 642.941 121.077 642.297 120.795 641.76L118.42 637.248C118.154 636.742 117.574 636.486 117.021 636.631C115.025 637.151 113.713 634.6 115.298 633.279L115.572 633.05C115.871 632.801 116.044 632.433 116.044 632.044V629.809C116.044 628.912 115.367 628.16 114.475 628.066L111.197 627.721C108.674 627.456 108.165 624.001 110.506 623.02L112.736 622.085C113.291 621.852 113.688 621.351 113.787 620.757L114.446 616.803C114.549 616.181 114.31 615.55 113.82 615.153L111.483 613.262C109.765 611.871 110.62 609.095 112.823 608.911L113.68 608.84C114.719 608.753 115.453 607.784 115.255 606.761L114.43 602.498C114.039 600.478 116.159 598.903 117.98 599.862L118.059 599.903C119.146 600.475 120.469 599.781 120.615 598.562L120.993 595.409C121.175 593.893 122.768 592.982 124.166 593.594C125.308 594.094 126.55 593.132 126.353 591.902L125.065 583.849Z" fill="url(#paint2_radial_2190_7216)" style=""/>
<path d="M125.757 583.738C125.494 582.097 127.451 581.046 128.674 582.172L135.551 588.506C136.724 589.587 138.601 589.278 139.366 587.877L140.759 585.322C141.36 584.219 142.892 584.089 143.671 585.073L146.825 589.057C147.762 590.241 149.536 590.305 150.556 589.192L153.559 585.916C154.563 584.82 156.39 585.395 156.587 586.869L156.832 588.705C157.1 590.719 159.561 591.552 160.997 590.115L162.459 588.654C163.466 587.647 165.191 588.199 165.426 589.605L166.68 597.134C166.809 597.908 167.301 598.573 168.003 598.924L169.59 599.718C170.293 600.069 171.122 600.063 171.819 599.7L172.883 599.147C174.46 598.327 176.115 600.106 175.183 601.62L174.008 603.53C173.674 604.073 173.564 604.725 173.702 605.347L173.831 605.924C174.091 607.098 175.165 607.909 176.365 607.841L181.524 607.546C183.111 607.455 183.989 609.355 182.891 610.505L179.794 613.749C179.359 614.206 179.116 614.812 179.116 615.443V625.643C179.116 626.294 179.374 626.918 179.834 627.378L181.473 629.017C182.57 630.114 181.483 631.95 179.994 631.516C178.974 631.218 177.887 631.693 177.411 632.643L175.749 635.969C175.416 636.633 175.403 637.412 175.713 638.088L177.007 640.913C177.661 642.338 176.256 643.838 174.791 643.28L173.648 642.845C172.662 642.469 171.545 642.766 170.877 643.584L169.648 645.086C168.976 645.907 168.908 647.066 169.479 647.96L171.332 650.859C172.353 652.457 170.461 654.312 168.883 653.26L164.462 650.313C163.79 649.865 162.941 649.776 162.191 650.076L157.361 652.008C156.532 652.34 155.949 653.096 155.838 653.981L155.696 655.117C155.49 656.769 153.312 657.229 152.455 655.801L151.997 655.036C151.553 654.297 150.755 653.845 149.893 653.845H145.787C145.042 653.845 144.337 654.184 143.872 654.766L142.139 656.932C141.156 658.161 139.176 657.57 139.027 656.003L138.926 654.946C138.848 654.121 138.357 653.391 137.623 653.006L132.25 650.192C131.537 649.818 130.685 649.819 129.972 650.193L124.125 653.263C122.761 653.979 121.378 652.338 122.316 651.115L123.034 650.179C124.028 648.882 122.831 647.057 121.245 647.454C120.363 647.674 119.651 646.722 120.112 645.938L121.359 643.819C121.789 643.087 121.81 642.185 121.415 641.433L119.04 636.922C118.622 636.128 117.713 635.726 116.844 635.953C115.573 636.284 114.737 634.659 115.746 633.817L116.021 633.588C116.48 633.206 116.745 632.641 116.745 632.044V629.809C116.745 628.553 115.797 627.501 114.549 627.369L111.271 627.024C109.468 626.834 109.105 624.367 110.777 623.666L113.007 622.731C113.784 622.405 114.339 621.703 114.478 620.872L115.137 616.918C115.282 616.047 114.947 615.164 114.261 614.609L111.924 612.717C110.697 611.723 111.307 609.741 112.881 609.61L113.738 609.538C115.193 609.417 116.22 608.06 115.943 606.628L115.118 602.365C114.838 600.922 116.353 599.797 117.654 600.482L117.733 600.524C119.254 601.324 121.106 600.352 121.311 598.645L121.689 595.492C121.815 594.443 122.917 593.813 123.885 594.236C125.535 594.958 127.33 593.569 127.045 591.791L125.757 583.738Z" fill="url(#paint3_radial_2190_7216)" style=""/>
<path fill-rule="evenodd" clip-rule="evenodd" d="M144.373 598.572C148.213 599.363 150.912 602.412 153.354 605.503C155.446 608.151 157.034 611.169 156.999 614.553C156.965 617.903 154.952 620.59 153.169 623.418C150.541 627.584 149.113 633.322 144.373 634.57C139.083 635.963 132.906 633.877 129.357 629.686C125.951 625.665 127.161 619.834 127.421 614.553C127.661 609.669 127.231 604.191 130.776 600.85C134.264 597.562 139.693 597.607 144.373 598.572Z" fill="#C6C5CF" style="fill:#C6C5CF;fill:color(display-p3 0.7784 0.7722 0.8125);fill-opacity:1;"/>
<ellipse cx="63.945" cy="289" rx="46.945" ry="43" fill="#B34149" style="fill:#B34149;fill:color(display-p3 0.7020 0.2549 0.2863);fill-opacity:1;"/>
<path d="M58.8164 284.661C58.8164 297.08 68.6324 303.597 60.7889 303.597C52.9454 303.597 37.5137 293.924 37.5137 281.505C37.5137 269.086 55.7069 259.808 63.5504 259.808C71.3938 259.808 58.8164 272.242 58.8164 284.661Z" fill="#882328" style="fill:#882328;fill:color(display-p3 0.5333 0.1373 0.1569);fill-opacity:1;"/>
<path d="M89.9808 280.985C89.9808 292.6 76.9121 300.834 79.7239 300.834C82.5356 300.834 93.1367 294.522 93.1367 280.985C93.1367 267.448 83.7191 262.568 80.9074 262.568C78.0956 262.568 89.9808 269.371 89.9808 280.985Z" fill="#DA6972" style="fill:#DA6972;fill:color(display-p3 0.8549 0.4118 0.4471);fill-opacity:1;"/>
<g opacity="0.92">
<ellipse cx="73.5147" cy="180.5" rx="14.5147" ry="10.5" fill="#B34149" style="fill:#B34149;fill:color(display-p3 0.7020 0.2549 0.2863);fill-opacity:1;"/>
<ellipse cx="73.7306" cy="178.637" rx="8.02941" ry="4.16912" fill="#882328" style="fill:#882328;fill:color(display-p3 0.5333 0.1373 0.1569);fill-opacity:1;"/>
<path d="M72.8977 173.944C77.0842 173.513 81.3319 176.745 81.2275 175.732C81.1231 174.718 77.7772 172.102 72.8977 172.604C68.0182 173.107 65.4846 175.612 65.5891 176.626C65.6935 177.639 68.7112 174.376 72.8977 173.944Z" fill="#DA6972" style="fill:#DA6972;fill:color(display-p3 0.8549 0.4118 0.4471);fill-opacity:1;"/>
</g>
<ellipse cx="75.8835" cy="473.254" rx="65.8835" ry="66.2536" fill="url(#paint4_radial_2190_7216)" style=""/>
<path fill-rule="evenodd" clip-rule="evenodd" d="M58.5753 441.34C59.0389 441.108 59.6028 441.296 59.8346 441.759L61.9173 445.925L62.4454 442.052C62.5154 441.539 62.9886 441.179 63.5022 441.249C64.0159 441.319 64.3755 441.792 64.3054 442.306L63.7659 446.263L66.1309 443.729C66.4846 443.35 67.0786 443.329 67.4576 443.683C67.8366 444.037 67.857 444.631 67.5033 445.01L63.5037 449.295L66.0589 456.961C66.9364 457.662 68.9058 458.872 70.978 459.079C71.3964 459.121 72.0556 458.893 72.917 458.233C73.7416 457.602 74.5996 456.691 75.3726 455.686C76.1336 454.698 76.7852 453.654 77.2226 452.762C77.4417 452.315 77.5981 451.925 77.6899 451.611C77.7357 451.454 77.7618 451.329 77.774 451.234C77.7859 451.139 77.7811 451.097 77.7808 451.094C77.5451 449.68 76.4675 446.252 75.9389 444.666C75.775 444.174 76.0408 443.643 76.5326 443.479C77.0244 443.315 77.5559 443.581 77.7199 444.072C78.0323 445.01 78.5731 446.699 79.0089 448.236L80.6831 444.888C80.9149 444.424 81.4787 444.237 81.9424 444.468C82.4061 444.7 82.594 445.264 82.3622 445.728L80.5597 449.333L83.1031 448.485C83.5949 448.321 84.1265 448.587 84.2904 449.079C84.4543 449.57 84.1886 450.102 83.6968 450.266L79.6127 451.627C79.5823 451.803 79.5394 451.975 79.4918 452.138C79.3606 452.586 79.1575 453.08 78.9081 453.589C78.4464 454.53 77.7953 455.584 77.0463 456.586C77.0319 457.463 77.0976 458.679 77.3312 459.77C77.4617 460.379 77.6358 460.907 77.8503 461.304C78.068 461.708 78.2812 461.894 78.4507 461.967C79.0441 462.221 79.8168 462.825 80.6011 463.51C81.4203 464.225 82.3605 465.128 83.3141 466.086C85.2229 468.003 87.2221 470.175 88.4818 471.592L88.5014 471.614L92.1091 476.224C93.4139 477.891 94.9327 479.379 96.6264 480.65L97.6923 481.449C100.12 483.27 102.809 484.655 105.707 485.172C106.949 485.394 108.124 485.543 109.023 485.551C109.476 485.555 109.811 485.523 110.032 485.469C110.104 485.451 110.15 485.435 110.176 485.423C110.506 484.912 111.031 484.45 111.476 484.063C111.528 484.017 111.58 483.972 111.632 483.927C112.09 483.529 112.537 483.141 112.932 482.698C113.365 482.213 113.694 481.707 113.862 481.14C114.025 480.587 114.054 479.916 113.791 479.062C112.95 476.329 112.35 474.602 112.066 473.834C111.118 473.374 109.407 472.592 108.134 472.168C107.481 471.95 106.314 471.75 105.051 471.591C103.894 471.444 102.728 471.341 101.954 471.286L98.6653 472.183C98.1652 472.319 97.6491 472.024 97.5127 471.524C97.3763 471.024 97.6712 470.508 98.1713 470.372L100.684 469.686L100.022 467.479C99.8734 466.983 100.155 466.46 100.652 466.311C101.148 466.162 101.671 466.443 101.82 466.94L102.573 469.45C103.336 469.511 104.313 469.605 105.286 469.728C106.542 469.887 107.878 470.104 108.727 470.387C108.825 470.419 108.925 470.454 109.026 470.489L107.538 468.902L103.686 466.828L102.262 466.39C100.372 465.809 98.8593 464.384 98.1652 462.533C97.9832 462.048 98.2291 461.507 98.7145 461.325C99.1999 461.143 99.7409 461.389 99.923 461.874C100.384 463.103 101.356 464.066 102.58 464.517L102.221 463.439C102.057 462.947 102.323 462.416 102.815 462.252C103.307 462.088 103.838 462.354 104.002 462.845L104.823 465.308L106.38 466.147L105.047 462.528C104.868 462.042 105.117 461.502 105.603 461.323C106.089 461.144 106.629 461.393 106.808 461.879L108.933 467.645L111.872 470.781V467.415L108.516 460.092C108.3 459.62 108.507 459.063 108.978 458.847C109.449 458.631 110.007 458.838 110.223 459.309L112.752 464.829L113.712 462.431C113.308 460.558 112.61 458.76 111.644 457.104L111.062 456.106C110.8 455.658 110.952 455.083 111.399 454.822C111.847 454.561 112.422 454.712 112.683 455.16L113.266 456.159C114.02 457.451 114.626 458.823 115.074 460.246L115.785 459.18C116.072 458.749 116.655 458.632 117.086 458.92C117.518 459.207 117.634 459.79 117.347 460.221L115.523 462.956L113.75 467.391V468.385L115.751 466.384L117.566 461.241L117.576 461.217C117.797 460.688 118.046 459.763 118.044 458.795C118.042 457.829 117.792 456.936 117.153 456.297C116.787 455.93 116.787 455.336 117.153 454.969C117.52 454.603 118.114 454.603 118.481 454.969C119.594 456.083 119.918 457.536 119.921 458.791C119.922 458.993 119.914 459.193 119.899 459.389C121.029 458.318 121.842 456.94 122.225 455.405C122.351 454.902 122.861 454.597 123.364 454.722C123.867 454.848 124.172 455.358 124.047 455.861C123.385 458.507 121.684 460.774 119.327 462.149L119.213 462.215L117.92 465.88C119.28 465.667 120.548 465.029 121.534 464.043C121.9 463.676 122.495 463.676 122.861 464.043C123.228 464.41 123.228 465.004 122.861 465.37C121.293 466.938 119.171 467.824 116.954 467.835L113.75 471.04V472.978C114.024 473.696 114.668 475.527 115.585 478.51C115.949 479.691 115.938 480.741 115.662 481.673C115.389 482.593 114.877 483.338 114.332 483.948C113.852 484.486 113.313 484.954 112.864 485.343C112.811 485.389 112.759 485.434 112.709 485.478C112.188 485.931 111.883 486.226 111.739 486.466C111.429 486.981 110.884 487.193 110.479 487.292C110.041 487.4 109.529 487.433 109.005 487.428C107.95 487.418 106.655 487.249 105.377 487.02C102.108 486.437 99.1502 484.889 96.5659 482.951L95.5 482.151C93.6744 480.782 92.0371 479.178 90.6307 477.381L87.1491 472.932C86.38 472.476 85.2328 471.837 84.1253 471.301C83.534 471.015 82.9689 470.765 82.4869 470.59C81.9741 470.403 81.6581 470.339 81.5226 470.339C81.2152 470.339 80.7883 470.562 80.4998 471.196C80.2208 471.81 80.1344 472.724 80.5242 473.764C80.7305 474.314 81.2721 474.912 82.0748 475.496C83.1141 476.252 84.3954 476.843 85.2872 477.17C85.3519 477.193 85.414 477.215 85.4734 477.236L88.8039 477.539C89.3202 477.586 89.7007 478.042 89.6537 478.559C89.6068 479.075 89.1502 479.455 88.634 479.408L87.799 479.332C88.0274 479.572 88.2556 479.816 88.4767 480.061C88.9972 480.637 89.4958 481.231 89.87 481.766C90.0566 482.032 90.226 482.303 90.3522 482.564C90.4681 482.803 90.5962 483.129 90.5962 483.48C90.5962 483.998 90.176 484.418 89.6576 484.418C89.1528 484.418 88.7412 484.02 88.7198 483.52C88.7155 483.506 88.7015 483.462 88.6629 483.383C88.5992 483.251 88.4967 483.08 88.3518 482.871C88.2412 483.594 88.1361 484.388 88.0573 485.178C87.8894 486.862 87.8594 488.374 88.0652 489.197C88.1909 489.7 87.8851 490.209 87.3822 490.335C86.8793 490.461 86.3696 490.155 86.2439 489.652C85.9491 488.473 86.0233 486.656 86.1892 484.992C86.3364 483.516 86.5702 482.037 86.7688 480.976C86.0764 480.232 85.3418 479.508 84.7828 478.983C84.7366 478.967 84.6895 478.95 84.6415 478.932C83.7083 478.591 82.3742 477.986 81.203 477.179C79.8929 477.136 78.0813 477.42 76.6172 478.361C75.1233 479.321 73.8997 481.017 74.0128 484.071C74.0556 485.227 74.1237 486.247 74.2092 487.145C74.4133 489.29 74.7155 490.719 75.0024 491.621C75.1461 492.073 75.2801 492.374 75.3845 492.559C75.4354 492.65 75.471 492.698 75.4874 492.718L75.5102 492.732L77.9643 494.914C78.7158 494.617 79.6197 494.231 80.3446 493.861C80.734 493.662 81.0308 493.488 81.2202 493.352C81.2489 493.16 81.3371 492.976 81.4847 492.828C81.8512 492.462 82.4456 492.462 82.8121 492.828C82.9793 492.995 83.1081 493.227 83.1345 493.507C83.1593 493.77 83.0862 493.988 83.0127 494.136C82.8777 494.407 82.6579 494.607 82.5027 494.734C82.165 495.009 81.6841 495.284 81.1988 495.532C80.6814 495.797 80.0926 496.063 79.527 496.303L81.2076 497.796C81.595 498.141 81.6299 498.734 81.2855 499.122C80.9411 499.509 80.3478 499.544 79.9604 499.2L75.3123 495.068L74.4471 497.144C74.369 497.332 74.2785 497.513 74.1764 497.688L77.3365 503.36C77.5888 503.813 77.4262 504.385 76.9733 504.637C76.5204 504.889 75.9488 504.727 75.6965 504.274L72.9395 499.325C72.4891 499.899 72.0201 500.504 71.6096 501.045C71.2635 501.502 70.9649 501.905 70.7552 502.205C70.6491 502.356 70.5744 502.469 70.5293 502.543C70.5265 502.548 70.5239 502.552 70.5216 502.556C70.3955 502.926 70.0453 503.191 69.6331 503.191C69.1147 503.191 68.6944 502.771 68.6944 502.253C68.6944 502.092 68.7351 501.967 68.7503 501.922C68.7709 501.862 68.794 501.81 68.8114 501.774C68.8464 501.701 68.8876 501.63 68.9249 501.568C69.0014 501.443 69.1032 501.291 69.2173 501.128C69.4477 500.799 69.7634 500.373 70.1137 499.911C70.8162 498.985 71.6817 497.882 72.3401 497.055C72.4941 496.861 72.6201 496.648 72.7142 496.422L73.8618 493.668C73.8213 493.606 73.7838 493.543 73.749 493.481C73.5635 493.152 73.3831 492.724 73.2134 492.19C72.8837 491.154 72.5718 489.645 72.3597 487.522C71.9798 486.868 71.3079 485.93 70.4475 485.116C69.5018 484.221 68.4327 483.574 67.3579 483.476C67.1212 483.454 66.7891 483.523 66.3451 483.769C65.9053 484.013 65.4188 484.397 64.9034 484.901C63.8727 485.91 62.83 487.299 61.9261 488.686C61.4468 489.421 61.0129 490.146 60.6472 490.797C60.3879 491.259 60.2664 491.8 60.288 492.361L60.5588 499.401C60.5787 499.919 60.1749 500.355 59.6569 500.375C59.1389 500.395 58.7028 499.991 58.6829 499.473L58.6215 497.879C58.0408 499.8 57.7435 501.8 57.7435 503.817C57.7435 504.335 57.3233 504.756 56.8049 504.756C56.2865 504.756 55.8662 504.335 55.8662 503.817C55.8662 500.622 56.5496 497.465 57.8701 494.557C56.6801 495.441 55.586 496.428 54.6388 497.539C54.1639 498.096 53.7267 498.631 53.4122 499.055C53.2536 499.269 53.1389 499.438 53.0681 499.557C53.0521 499.585 53.0404 499.606 53.0321 499.621C52.9463 500.051 52.5668 500.375 52.1116 500.375C51.5932 500.375 51.173 499.955 51.173 499.437C51.173 499.209 51.2464 499.019 51.2849 498.927C51.3327 498.814 51.3927 498.703 51.4518 498.602C51.571 498.401 51.7296 498.172 51.9043 497.937C52.2564 497.462 52.7255 496.89 53.2101 496.321C54.5376 494.764 56.1018 493.453 57.7673 492.331L58.4198 491.892C58.4667 491.196 58.6577 490.506 59.0101 489.878C59.3378 489.294 59.7172 488.655 60.134 488.001L60.0271 487.551C59.09 483.613 56.549 480.254 53.0314 478.279L47.1282 481.2L43.514 486.804C43.233 487.24 42.6521 487.365 42.2164 487.084C41.7807 486.803 41.6553 486.223 41.9363 485.787L44.0368 482.53L39.0243 484.657C38.5471 484.859 37.996 484.636 37.7936 484.159C37.5911 483.682 37.8138 483.131 38.291 482.928L43.4038 480.759L40.0207 480.016C39.5144 479.905 39.1941 479.404 39.3053 478.898C39.4165 478.392 39.9171 478.071 40.4234 478.182L46.359 479.486L52.4555 476.469C53.2512 475.489 54.2773 473.799 54.8461 471.802C55.4413 469.713 55.5181 467.361 54.4009 465.126C53.9937 464.312 53.541 464.007 53.1332 463.904C52.7333 463.803 52.2116 463.854 51.5505 464.123C50.8929 464.39 50.1687 464.845 49.4143 465.442C48.8628 465.879 48.3086 466.381 47.7678 466.92C46.4743 468.208 45.2868 469.675 44.4289 470.882C44.1287 471.305 43.5427 471.404 43.1201 471.104C42.6975 470.803 42.5983 470.217 42.8986 469.795C43.5592 468.865 44.4037 467.79 45.3471 466.744C44.6672 466.565 43.9015 466.375 43.1375 466.203C41.6929 465.879 40.3544 465.645 39.5963 465.645C39.0779 465.645 38.6576 465.225 38.6576 464.707C38.6576 464.188 39.0779 463.768 39.5963 463.768C40.5903 463.768 42.1199 464.051 43.5487 464.371C44.7494 464.641 45.9497 464.954 46.8398 465.203C46.8795 465.165 46.9194 465.127 46.9593 465.09C46.4898 464.929 45.9837 464.746 45.4751 464.55C44.305 464.099 43.0475 463.547 42.2045 462.985C41.7731 462.697 41.6566 462.114 41.9441 461.683C42.2317 461.252 42.8145 461.135 43.2458 461.423C43.9046 461.862 44.9954 462.353 46.1507 462.798C47.0624 463.15 47.9681 463.456 48.6436 463.668C49.3585 463.137 50.1009 462.685 50.8433 462.384C51.696 462.037 52.6178 461.86 53.5173 462.066C55.3166 462.232 57.9927 462.165 60.2494 461.463C62.4754 460.77 64.024 459.566 64.2963 457.609L61.5674 449.423L58.1555 442.599C57.9237 442.135 58.1116 441.571 58.5753 441.34ZM53.0154 499.655C53.0154 499.655 53.0164 499.653 53.0172 499.651C53.0134 499.661 53.012 499.663 53.0154 499.655Z" fill="white" style="fill:white;fill-opacity:1;"/>
<path fill-rule="evenodd" clip-rule="evenodd" d="M58.5753 441.34C59.0389 441.108 59.6028 441.296 59.8346 441.759L61.9173 445.925L62.4454 442.052C62.5154 441.539 62.9886 441.179 63.5022 441.249C64.0159 441.319 64.3755 441.792 64.3054 442.306L63.7659 446.263L66.1309 443.729C66.4846 443.35 67.0786 443.329 67.4576 443.683C67.8366 444.037 67.857 444.631 67.5033 445.01L63.5037 449.295L66.0589 456.961C66.9364 457.662 68.9058 458.872 70.978 459.079C71.3964 459.121 72.0556 458.893 72.917 458.233C73.7416 457.602 74.5996 456.691 75.3726 455.686C76.1336 454.698 76.7852 453.654 77.2226 452.762C77.4417 452.315 77.5981 451.925 77.6899 451.611C77.7357 451.454 77.7618 451.329 77.774 451.234C77.7859 451.139 77.7811 451.097 77.7808 451.094C77.5451 449.68 76.4675 446.252 75.9389 444.666C75.775 444.174 76.0408 443.643 76.5326 443.479C77.0244 443.315 77.5559 443.581 77.7199 444.072C78.0323 445.01 78.5731 446.699 79.0089 448.236L80.6831 444.888C80.9149 444.424 81.4787 444.237 81.9424 444.468C82.4061 444.7 82.594 445.264 82.3622 445.728L80.5597 449.333L83.1031 448.485C83.5949 448.321 84.1265 448.587 84.2904 449.079C84.4543 449.57 84.1886 450.102 83.6968 450.266L79.6127 451.627C79.5823 451.803 79.5394 451.975 79.4918 452.138C79.3606 452.586 79.1575 453.08 78.9081 453.589C78.4464 454.53 77.7953 455.584 77.0463 456.586C77.0319 457.463 77.0976 458.679 77.3312 459.77C77.4617 460.379 77.6358 460.907 77.8503 461.304C78.068 461.708 78.2812 461.894 78.4507 461.967C79.0441 462.221 79.8168 462.825 80.6011 463.51C81.4203 464.225 82.3605 465.128 83.3141 466.086C85.2229 468.003 87.2221 470.175 88.4818 471.592L88.5014 471.614L92.1091 476.224C93.4139 477.891 94.9327 479.379 96.6264 480.65L97.6923 481.449C100.12 483.27 102.809 484.655 105.707 485.172C106.949 485.394 108.124 485.543 109.023 485.551C109.476 485.555 109.811 485.523 110.032 485.469C110.104 485.451 110.15 485.435 110.176 485.423C110.506 484.912 111.031 484.45 111.476 484.063C111.528 484.017 111.58 483.972 111.632 483.927C112.09 483.529 112.537 483.141 112.932 482.698C113.365 482.213 113.694 481.707 113.862 481.14C114.025 480.587 114.054 479.916 113.791 479.062C112.95 476.329 112.35 474.602 112.066 473.834C111.118 473.374 109.407 472.592 108.134 472.168C107.481 471.95 106.314 471.75 105.051 471.591C103.894 471.444 102.728 471.341 101.954 471.286L98.6653 472.183C98.1652 472.319 97.6491 472.024 97.5127 471.524C97.3763 471.024 97.6712 470.508 98.1713 470.372L100.684 469.686L100.022 467.479C99.8734 466.983 100.155 466.46 100.652 466.311C101.148 466.162 101.671 466.443 101.82 466.94L102.573 469.45C103.336 469.511 104.313 469.605 105.286 469.728C106.542 469.887 107.878 470.104 108.727 470.387C108.825 470.419 108.925 470.454 109.026 470.489L107.538 468.902L103.686 466.828L102.262 466.39C100.372 465.809 98.8593 464.384 98.1652 462.533C97.9832 462.048 98.2291 461.507 98.7145 461.325C99.1999 461.143 99.7409 461.389 99.923 461.874C100.384 463.103 101.356 464.066 102.58 464.517L102.221 463.439C102.057 462.947 102.323 462.416 102.815 462.252C103.307 462.088 103.838 462.354 104.002 462.845L104.823 465.308L106.38 466.147L105.047 462.528C104.868 462.042 105.117 461.502 105.603 461.323C106.089 461.144 106.629 461.393 106.808 461.879L108.933 467.645L111.872 470.781V467.415L108.516 460.092C108.3 459.62 108.507 459.063 108.978 458.847C109.449 458.631 110.007 458.838 110.223 459.309L112.752 464.829L113.712 462.431C113.308 460.558 112.61 458.76 111.644 457.104L111.062 456.106C110.8 455.658 110.952 455.083 111.399 454.822C111.847 454.561 112.422 454.712 112.683 455.16L113.266 456.159C114.02 457.451 114.626 458.823 115.074 460.246L115.785 459.18C116.072 458.749 116.655 458.632 117.086 458.92C117.518 459.207 117.634 459.79 117.347 460.221L115.523 462.956L113.75 467.391V468.385L115.751 466.384L117.566 461.241L117.576 461.217C117.797 460.688 118.046 459.763 118.044 458.795C118.042 457.829 117.792 456.936 117.153 456.297C116.787 455.93 116.787 455.336 117.153 454.969C117.52 454.603 118.114 454.603 118.481 454.969C119.594 456.083 119.918 457.536 119.921 458.791C119.922 458.993 119.914 459.193 119.899 459.389C121.029 458.318 121.842 456.94 122.225 455.405C122.351 454.902 122.861 454.597 123.364 454.722C123.867 454.848 124.172 455.358 124.047 455.861C123.385 458.507 121.684 460.774 119.327 462.149L119.213 462.215L117.92 465.88C119.28 465.667 120.548 465.029 121.534 464.043C121.9 463.676 122.495 463.676 122.861 464.043C123.228 464.41 123.228 465.004 122.861 465.37C121.293 466.938 119.171 467.824 116.954 467.835L113.75 471.04V472.978C114.024 473.696 114.668 475.527 115.585 478.51C115.949 479.691 115.938 480.741 115.662 481.673C115.389 482.593 114.877 483.338 114.332 483.948C113.852 484.486 113.313 484.954 112.864 485.343C112.811 485.389 112.759 485.434 112.709 485.478C112.188 485.931 111.883 486.226 111.739 486.466C111.429 486.981 110.884 487.193 110.479 487.292C110.041 487.4 109.529 487.433 109.005 487.428C107.95 487.418 106.655 487.249 105.377 487.02C102.108 486.437 99.1502 484.889 96.5659 482.951L95.5 482.151C93.6744 480.782 92.0371 479.178 90.6307 477.381L87.1491 472.932C86.38 472.476 85.2328 471.837 84.1253 471.301C83.534 471.015 82.9689 470.765 82.4869 470.59C81.9741 470.403 81.6581 470.339 81.5226 470.339C81.2152 470.339 80.7883 470.562 80.4998 471.196C80.2208 471.81 80.1344 472.724 80.5242 473.764C80.7305 474.314 81.2721 474.912 82.0748 475.496C83.1141 476.252 84.3954 476.843 85.2872 477.17C85.3519 477.193 85.414 477.215 85.4734 477.236L88.8039 477.539C89.3202 477.586 89.7007 478.042 89.6537 478.559C89.6068 479.075 89.1502 479.455 88.634 479.408L87.799 479.332C88.0274 479.572 88.2556 479.816 88.4767 480.061C88.9972 480.637 89.4958 481.231 89.87 481.766C90.0566 482.032 90.226 482.303 90.3522 482.564C90.4681 482.803 90.5962 483.129 90.5962 483.48C90.5962 483.998 90.176 484.418 89.6576 484.418C89.1528 484.418 88.7412 484.02 88.7198 483.52C88.7155 483.506 88.7015 483.462 88.6629 483.383C88.5992 483.251 88.4967 483.08 88.3518 482.871C88.2412 483.594 88.1361 484.388 88.0573 485.178C87.8894 486.862 87.8594 488.374 88.0652 489.197C88.1909 489.7 87.8851 490.209 87.3822 490.335C86.8793 490.461 86.3696 490.155 86.2439 489.652C85.9491 488.473 86.0233 486.656 86.1892 484.992C86.3364 483.516 86.5702 482.037 86.7688 480.976C86.0764 480.232 85.3418 479.508 84.7828 478.983C84.7366 478.967 84.6895 478.95 84.6415 478.932C83.7083 478.591 82.3742 477.986 81.203 477.179C79.8929 477.136 78.0813 477.42 76.6172 478.361C75.1233 479.321 73.8997 481.017 74.0128 484.071C74.0556 485.227 74.1237 486.247 74.2092 487.145C74.4133 489.29 74.7155 490.719 75.0024 491.621C75.1461 492.073 75.2801 492.374 75.3845 492.559C75.4354 492.65 75.471 492.698 75.4874 492.718L75.5102 492.732L77.9643 494.914C78.7158 494.617 79.6197 494.231 80.3446 493.861C80.734 493.662 81.0308 493.488 81.2202 493.352C81.2489 493.16 81.3371 492.976 81.4847 492.828C81.8512 492.462 82.4456 492.462 82.8121 492.828C82.9793 492.995 83.1081 493.227 83.1345 493.507C83.1593 493.77 83.0862 493.988 83.0127 494.136C82.8777 494.407 82.6579 494.607 82.5027 494.734C82.165 495.009 81.6841 495.284 81.1988 495.532C80.6814 495.797 80.0926 496.063 79.527 496.303L81.2076 497.796C81.595 498.141 81.6299 498.734 81.2855 499.122C80.9411 499.509 80.3478 499.544 79.9604 499.2L75.3123 495.068L74.4471 497.144C74.369 497.332 74.2785 497.513 74.1764 497.688L77.3365 503.36C77.5888 503.813 77.4262 504.385 76.9733 504.637C76.5204 504.889 75.9488 504.727 75.6965 504.274L72.9395 499.325C72.4891 499.899 72.0201 500.504 71.6096 501.045C71.2635 501.502 70.9649 501.905 70.7552 502.205C70.6491 502.356 70.5744 502.469 70.5293 502.543C70.5265 502.548 70.5239 502.552 70.5216 502.556C70.3955 502.926 70.0453 503.191 69.6331 503.191C69.1147 503.191 68.6944 502.771 68.6944 502.253C68.6944 502.092 68.7351 501.967 68.7503 501.922C68.7709 501.862 68.794 501.81 68.8114 501.774C68.8464 501.701 68.8876 501.63 68.9249 501.568C69.0014 501.443 69.1032 501.291 69.2173 501.128C69.4477 500.799 69.7634 500.373 70.1137 499.911C70.8162 498.985 71.6817 497.882 72.3401 497.055C72.4941 496.861 72.6201 496.648 72.7142 496.422L73.8618 493.668C73.8213 493.606 73.7838 493.543 73.749 493.481C73.5635 493.152 73.3831 492.724 73.2134 492.19C72.8837 491.154 72.5718 489.645 72.3597 487.522C71.9798 486.868 71.3079 485.93 70.4475 485.116C69.5018 484.221 68.4327 483.574 67.3579 483.476C67.1212 483.454 66.7891 483.523 66.3451 483.769C65.9053 484.013 65.4188 484.397 64.9034 484.901C63.8727 485.91 62.83 487.299 61.9261 488.686C61.4468 489.421 61.0129 490.146 60.6472 490.797C60.3879 491.259 60.2664 491.8 60.288 492.361L60.5588 499.401C60.5787 499.919 60.1749 500.355 59.6569 500.375C59.1389 500.395 58.7028 499.991 58.6829 499.473L58.6215 497.879C58.0408 499.8 57.7435 501.8 57.7435 503.817C57.7435 504.335 57.3233 504.756 56.8049 504.756C56.2865 504.756 55.8662 504.335 55.8662 503.817C55.8662 500.622 56.5496 497.465 57.8701 494.557C56.6801 495.441 55.586 496.428 54.6388 497.539C54.1639 498.096 53.7267 498.631 53.4122 499.055C53.2536 499.269 53.1389 499.438 53.0681 499.557C53.0521 499.585 53.0404 499.606 53.0321 499.621C52.9463 500.051 52.5668 500.375 52.1116 500.375C51.5932 500.375 51.173 499.955 51.173 499.437C51.173 499.209 51.2464 499.019 51.2849 498.927C51.3327 498.814 51.3927 498.703 51.4518 498.602C51.571 498.401 51.7296 498.172 51.9043 497.937C52.2564 497.462 52.7255 496.89 53.2101 496.321C54.5376 494.764 56.1018 493.453 57.7673 492.331L58.4198 491.892C58.4667 491.196 58.6577 490.506 59.0101 489.878C59.3378 489.294 59.7172 488.655 60.134 488.001L60.0271 487.551C59.09 483.613 56.549 480.254 53.0314 478.279L47.1282 481.2L43.514 486.804C43.233 487.24 42.6521 487.365 42.2164 487.084C41.7807 486.803 41.6553 486.223 41.9363 485.787L44.0368 482.53L39.0243 484.657C38.5471 484.859 37.996 484.636 37.7936 484.159C37.5911 483.682 37.8138 483.131 38.291 482.928L43.4038 480.759L40.0207 480.016C39.5144 479.905 39.1941 479.404 39.3053 478.898C39.4165 478.392 39.9171 478.071 40.4234 478.182L46.359 479.486L52.4555 476.469C53.2512 475.489 54.2773 473.799 54.8461 471.802C55.4413 469.713 55.5181 467.361 54.4009 465.126C53.9937 464.312 53.541 464.007 53.1332 463.904C52.7333 463.803 52.2116 463.854 51.5505 464.123C50.8929 464.39 50.1687 464.845 49.4143 465.442C48.8628 465.879 48.3086 466.381 47.7678 466.92C46.4743 468.208 45.2868 469.675 44.4289 470.882C44.1287 471.305 43.5427 471.404 43.1201 471.104C42.6975 470.803 42.5983 470.217 42.8986 469.795C43.5592 468.865 44.4037 467.79 45.3471 466.744C44.6672 466.565 43.9015 466.375 43.1375 466.203C41.6929 465.879 40.3544 465.645 39.5963 465.645C39.0779 465.645 38.6576 465.225 38.6576 464.707C38.6576 464.188 39.0779 463.768 39.5963 463.768C40.5903 463.768 42.1199 464.051 43.5487 464.371C44.7494 464.641 45.9497 464.954 46.8398 465.203C46.8795 465.165 46.9194 465.127 46.9593 465.09C46.4898 464.929 45.9837 464.746 45.4751 464.55C44.305 464.099 43.0475 463.547 42.2045 462.985C41.7731 462.697 41.6566 462.114 41.9441 461.683C42.2317 461.252 42.8145 461.135 43.2458 461.423C43.9046 461.862 44.9954 462.353 46.1507 462.798C47.0624 463.15 47.9681 463.456 48.6436 463.668C49.3585 463.137 50.1009 462.685 50.8433 462.384C51.696 462.037 52.6178 461.86 53.5173 462.066C55.3166 462.232 57.9927 462.165 60.2494 461.463C62.4754 460.77 64.024 459.566 64.2963 457.609L61.5674 449.423L58.1555 442.599C57.9237 442.135 58.1116 441.571 58.5753 441.34ZM53.0154 499.655C53.0154 499.655 53.0164 499.653 53.0172 499.651C53.0134 499.661 53.012 499.663 53.0154 499.655Z" fill="url(#paint5_radial_2190_7216)" style=""/>
<path fill-rule="evenodd" clip-rule="evenodd" d="M75.4233 468.826C76.4852 474.277 71.8738 476.41 68.5991 478.681C65.7257 480.673 62.2412 483.356 59.5696 479.82C56.9601 476.367 58.6948 471.31 59.983 467.279C60.9929 464.119 62.7049 461.574 65.3174 461.836C69.248 462.23 74.3498 463.316 75.4233 468.826Z" fill="#A6C2DA" style="fill:#A6C2DA;fill:color(display-p3 0.6510 0.7608 0.8549);fill-opacity:1;"/>
<path d="M161.632 278.183C161.632 323.068 125.45 359.454 80.8162 359.454C36.1826 359.454 0 323.068 0 278.183C0 233.299 20.3665 270.413 65 270.413C109.634 270.413 161.632 233.299 161.632 278.183Z" fill="url(#paint6_radial_2190_7216)" fill-opacity="0.5" style=""/>
<path fill-rule="evenodd" clip-rule="evenodd" d="M50.685 147.459C52.0417 146.068 54.4817 147.144 56.385 146.731C58.098 146.359 59.563 144.922 61.3047 145.153C63.0778 145.388 64.3929 146.831 65.7733 147.975C67.229 149.18 69.227 150.178 69.6016 152.026C69.9788 153.887 68.1595 155.431 67.6543 157.255C67.1785 158.973 67.7402 160.972 66.7202 162.432C65.6691 163.936 63.9068 164.978 62.0841 165.226C60.3275 165.465 58.7595 164.253 57.0549 163.749C55.4591 163.277 53.6878 163.344 52.3515 162.349C50.956 161.31 49.8805 159.791 49.4733 158.103C49.0746 156.45 49.9392 154.83 50.131 153.145C50.3501 151.221 49.3359 148.843 50.685 147.459Z" fill="#F1E9E8" style="fill:#F1E9E8;fill:color(display-p3 0.9451 0.9137 0.9098);fill-opacity:1;"/>
<path fill-rule="evenodd" clip-rule="evenodd" d="M81.685 198.459C83.0417 197.068 85.4817 198.144 87.385 197.731C89.098 197.359 90.563 195.922 92.3047 196.153C94.0778 196.388 95.3929 197.831 96.7733 198.975C98.229 200.18 100.227 201.178 100.602 203.026C100.979 204.887 99.1595 206.431 98.6543 208.255C98.1785 209.973 98.7402 211.972 97.7202 213.432C96.6691 214.936 94.9068 215.978 93.0841 216.226C91.3275 216.465 89.7595 215.253 88.0549 214.749C86.4591 214.277 84.6878 214.344 83.3515 213.349C81.956 212.31 80.8805 210.791 80.4733 209.103C80.0746 207.45 80.9392 205.83 81.131 204.145C81.3501 202.221 80.3359 199.843 81.685 198.459Z" fill="#F1E9E8" style="fill:#F1E9E8;fill:color(display-p3 0.9451 0.9137 0.9098);fill-opacity:1;"/>
<path fill-rule="evenodd" clip-rule="evenodd" d="M34.1407 181.001C37.5409 181.073 39.0787 185.422 41.8805 187.338C44.4023 189.062 47.9892 189.219 49.7742 191.689C51.5913 194.205 51.316 197.566 51.5021 200.657C51.6982 203.916 52.8092 207.614 50.8923 210.266C48.9626 212.936 44.8149 212.459 41.8779 213.972C39.1118 215.397 37.2258 218.462 34.1407 218.895C30.9615 219.341 27.5243 218.344 25.0298 216.335C22.6257 214.4 22.3042 210.991 20.9128 208.245C19.6103 205.674 17.4088 203.517 17.0857 200.657C16.7482 197.67 17.4065 194.522 19.0795 192.018C20.7172 189.566 23.8219 188.748 26.2067 187.004C28.93 185.012 30.7596 180.929 34.1407 181.001Z" fill="#F3E8E7" style="fill:#F3E8E7;fill:color(display-p3 0.9548 0.9104 0.9048);fill-opacity:1;"/>
<path fill-rule="evenodd" clip-rule="evenodd" d="M54.8222 75.0539C59.3642 74.6891 64.1536 70.3849 68.1087 72.6608C72.1782 75.0024 70.6772 81.6927 73.2321 85.6472C75.4766 89.1214 80.1259 90.4892 82.0079 94.1749C84.0291 98.1331 86.196 103.186 84.2211 107.168C82.103 111.438 75.5595 111.027 72.0542 114.242C69.2393 116.825 68.9475 121.374 66.0381 123.848C62.8704 126.542 58.9426 128.417 54.8222 128.897C50.5492 129.394 46.3552 128.007 42.2835 126.612C37.8727 125.1 32.7932 124.086 29.9515 120.371C27.1097 116.656 28.3483 111.3 27.1149 106.78C25.8224 102.042 20.3665 97.4195 22.482 92.9913C24.8274 88.082 32.9783 89.7686 36.9895 86.1102C40.1415 83.2353 38.8975 76.9617 42.5195 74.7161C46.0563 72.5232 50.6809 75.3866 54.8222 75.0539Z" fill="url(#paint7_radial_2190_7216)" style=""/>
<path fill-rule="evenodd" clip-rule="evenodd" d="M110.561 149.397C106.011 144.654 102.038 139.26 101.555 132.708C101.073 126.163 104.224 120.264 108.019 114.912C112.35 108.804 116.864 101.777 124.273 100.673C131.985 99.5235 139.282 104.116 145.024 109.397C150.562 114.49 155.155 121.256 154.825 128.77C154.518 135.758 147.826 139.985 143.44 145.431C138.779 151.219 136.172 160.205 128.791 161.096C121.342 161.994 115.757 154.813 110.561 149.397Z" fill="url(#paint8_radial_2190_7216)" style=""/>
<path fill-rule="evenodd" clip-rule="evenodd" d="M108.177 128.931C108.411 125.372 110.737 122.962 112.772 120.69C114.587 118.665 116.612 117.202 118.935 116.921C121.568 116.603 124.483 116.56 126.377 119.044C128.313 121.584 128.49 125.614 128.373 129.301C128.258 132.904 127.617 136.54 125.74 139.104C123.831 141.712 121.142 142.961 118.46 142.841C115.829 142.723 113.464 140.987 111.603 138.471C109.69 135.883 107.934 132.619 108.177 128.931Z" fill="#7AA1C3" fill-opacity="0.59" style="fill:#7AA1C3;fill:color(display-p3 0.4791 0.6313 0.7665);fill-opacity:0.59;"/>
<g opacity="0.7">
<g opacity="0.5">
<ellipse cx="162.384" cy="379.633" rx="44.3835" ry="44.6328" fill="url(#paint9_radial_2190_7216)" style=""/>
</g>
<path fill-rule="evenodd" clip-rule="evenodd" d="M163.37 365.631C166.963 365.031 169.994 361.248 173.527 362.134C176.938 362.988 179.127 366.62 180.402 369.899C181.612 373.008 180.658 376.414 180.376 379.739C180.116 382.799 180.042 385.846 178.809 388.658C177.485 391.681 176.139 395.374 173.035 396.491C169.867 397.631 166.733 394.059 163.37 394.215C159.749 394.384 156.462 398.933 153.172 397.414C149.994 395.947 150.971 390.935 149.441 387.786C148.049 384.919 145.253 382.856 144.587 379.739C143.853 376.305 143.473 372.278 145.519 369.426C147.57 366.569 151.56 365.961 154.999 365.23C157.779 364.639 160.567 366.1 163.37 365.631Z" fill="url(#paint10_radial_2190_7216)" style=""/>
<path fill-rule="evenodd" clip-rule="evenodd" d="M164.446 372.063C165.388 372.914 165.415 374.277 165.486 375.504C165.549 376.598 165.393 377.648 164.819 378.552C164.169 379.577 163.361 380.644 162.125 380.798C160.861 380.954 159.671 380.152 158.66 379.316C157.672 378.5 156.823 377.485 156.625 376.252C156.424 374.998 156.827 373.753 157.615 372.805C158.389 371.875 159.546 371.39 160.781 371.256C162.052 371.118 163.47 371.182 164.446 372.063Z" fill="#7AA1C3" style="fill:#7AA1C3;fill:color(display-p3 0.4791 0.6313 0.7665);fill-opacity:1;"/>
</g>
<path fill-rule="evenodd" clip-rule="evenodd" d="M56.3731 82.5716C60.2135 83.3629 62.9125 86.4123 65.354 89.5027C67.4461 92.1507 69.0344 95.1688 68.9994 98.5533C68.9648 101.903 66.9525 104.59 65.169 107.418C62.5411 111.584 61.1126 117.322 56.3731 118.57C51.0829 119.963 44.9064 117.877 41.3568 113.686C37.9508 109.665 39.1612 103.834 39.421 98.5533C39.6613 93.6685 39.2315 88.1914 42.7756 84.8502C46.2637 81.5617 51.6934 81.6073 56.3731 82.5716Z" fill="#BFBBD2" style="fill:#BFBBD2;fill:color(display-p3 0.7486 0.7353 0.8216);fill-opacity:1;"/>
</g>
<defs>
<radialGradient id="paint0_radial_2190_7216" cx="0" cy="0" r="1" gradientUnits="userSpaceOnUse" gradientTransform="translate(76.4255 -23.1111) rotate(58.5526) scale(95.0222 86.7077)">
<stop stop-color="#65ACEC" stop-opacity="0" style="stop-color:none;stop-opacity:0;"/>
<stop offset="1" stop-color="#4CA1DF" stop-opacity="0.24" style="stop-color:#4CA1DF;stop-color:color(display-p3 0.2979 0.6319 0.8738);stop-opacity:0.24;"/>
</radialGradient>
<radialGradient id="paint1_radial_2190_7216" cx="0" cy="0" r="1" gradientUnits="userSpaceOnUse" gradientTransform="translate(131.5 628) rotate(73.3949) scale(85.0889 84.6135)">
<stop stop-color="white" stop-opacity="0" style="stop-color:none;stop-opacity:0;"/>
<stop offset="1" stop-color="#E0ECFF" style="stop-color:#E0ECFF;stop-color:color(display-p3 0.8781 0.9269 1.0000);stop-opacity:1;"/>
</radialGradient>
<radialGradient id="paint2_radial_2190_7216" cx="0" cy="0" r="1" gradientUnits="userSpaceOnUse" gradientTransform="translate(146.541 619.647) rotate(90) scale(38.6466 37.5415)">
<stop stop-color="#65ACEC" stop-opacity="0.01" style="stop-color:#65ACEC;stop-color:color(display-p3 0.3947 0.6760 0.9260);stop-opacity:0.01;"/>
<stop offset="1" stop-color="#5E538C" stop-opacity="0.26" style="stop-color:#5E538C;stop-color:color(display-p3 0.3689 0.3241 0.5482);stop-opacity:0.26;"/>
</radialGradient>
<radialGradient id="paint3_radial_2190_7216" cx="0" cy="0" r="1" gradientUnits="userSpaceOnUse" gradientTransform="translate(146.541 619.647) rotate(90) scale(38.6466 37.5415)">
<stop stop-color="#65ACEC" stop-opacity="0.01" style="stop-color:#65ACEC;stop-color:color(display-p3 0.3947 0.6760 0.9260);stop-opacity:0.01;"/>
<stop offset="1" stop-color="#5E538C" stop-opacity="0.26" style="stop-color:#5E538C;stop-color:color(display-p3 0.3689 0.3241 0.5482);stop-opacity:0.26;"/>
</radialGradient>
<radialGradient id="paint4_radial_2190_7216" cx="0" cy="0" r="1" gradientUnits="userSpaceOnUse" gradientTransform="translate(56.0603 473.033) rotate(73.3949) scale(69.3667 68.9792)">
<stop stop-color="white" stop-opacity="0" style="stop-color:none;stop-opacity:0;"/>
<stop offset="1" stop-color="#E0ECFF" style="stop-color:#E0ECFF;stop-color:color(display-p3 0.8781 0.9269 1.0000);stop-opacity:1;"/>
</radialGradient>
<radialGradient id="paint5_radial_2190_7216" cx="0" cy="0" r="1" gradientUnits="userSpaceOnUse" gradientTransform="translate(69.3199 471.277) rotate(70.9247) scale(35.424 48.1627)">
<stop stop-color="#65ACEC" stop-opacity="0.1" style="stop-color:#65ACEC;stop-color:color(display-p3 0.3947 0.6760 0.9260);stop-opacity:0.1;"/>
<stop offset="1" stop-color="#2181D6" stop-opacity="0.43" style="stop-color:#2181D6;stop-color:color(display-p3 0.1289 0.5042 0.8377);stop-opacity:0.43;"/>
</radialGradient>
<radialGradient id="paint6_radial_2190_7216" cx="0" cy="0" r="1" gradientUnits="userSpaceOnUse" gradientTransform="translate(74 268.413) rotate(85.7183) scale(91.2952 117.319)">
<stop stop-color="white" stop-opacity="0" style="stop-color:none;stop-opacity:0;"/>
<stop offset="1" stop-color="#E0ECFF" style="stop-color:#E0ECFF;stop-color:color(display-p3 0.8781 0.9269 1.0000);stop-opacity:1;"/>
</radialGradient>
<radialGradient id="paint7_radial_2190_7216" cx="0" cy="0" r="1" gradientUnits="userSpaceOnUse" gradientTransform="translate(53.5 100.5) rotate(90) scale(28.5 31.5)">
<stop stop-color="#60639F" stop-opacity="0.3" style="stop-color:#60639F;stop-color:color(display-p3 0.3765 0.3882 0.6235);stop-opacity:0.3;"/>
<stop offset="1" stop-color="#60639F" stop-opacity="0.24" style="stop-color:#60639F;stop-color:color(display-p3 0.3767 0.3865 0.6235);stop-opacity:0.24;"/>
</radialGradient>
<radialGradient id="paint8_radial_2190_7216" cx="0" cy="0" r="1" gradientUnits="userSpaceOnUse" gradientTransform="translate(127.11 129.351) rotate(-49.2525) scale(26.8397 24.5391)">
<stop stop-color="#65ACEC" stop-opacity="0" style="stop-color:none;stop-opacity:0;"/>
<stop offset="1" stop-color="#3468EC" stop-opacity="0.24" style="stop-color:#3468EC;stop-color:color(display-p3 0.2058 0.4068 0.9238);stop-opacity:0.24;"/>
</radialGradient>
<radialGradient id="paint9_radial_2190_7216" cx="0" cy="0" r="1" gradientUnits="userSpaceOnUse" gradientTransform="translate(149.03 379.484) rotate(73.3949) scale(46.73 46.4689)">
<stop stop-color="white" stop-opacity="0" style="stop-color:none;stop-opacity:0;"/>
<stop offset="1" stop-color="#E0ECFF" style="stop-color:#E0ECFF;stop-color:color(display-p3 0.8781 0.9269 1.0000);stop-opacity:1;"/>
</radialGradient>
<radialGradient id="paint10_radial_2190_7216" cx="0" cy="0" r="1" gradientUnits="userSpaceOnUse" gradientTransform="translate(187.096 352.78) rotate(118.69) scale(51.234 50.3271)">
<stop stop-color="#65ACEC" stop-opacity="0" style="stop-color:none;stop-opacity:0;"/>
<stop offset="1" stop-color="#2A76AD" stop-opacity="0.54" style="stop-color:#2A76AD;stop-color:color(display-p3 0.1654 0.4633 0.6791);stop-opacity:0.54;"/>
</radialGradient>
<clipPath id="clip0_2190_7216">
<rect width="237" height="720" fill="white" style="fill:white;fill-opacity:1;"/>
</clipPath>
</defs>
</svg>
